<svg xmlns="http://www.w3.org/2000/svg" viewBox="0 0 14 14" shape-rendering="crispEdges">
  <rect x="3" y="0" width="1" height="1" fill="#FF6B1A"/>
  <rect x="4" y="0" width="1" height="1" fill="#FF6B1A"/>
  <rect x="9" y="0" width="1" height="1" fill="#FF6B1A"/>
  <rect x="10" y="0" width="1" height="1" fill="#FF6B1A"/>
  <rect x="2" y="1" width="1" height="1" fill="#FF6B1A"/>
  <rect x="3" y="1" width="1" height="1" fill="#EA580C"/>
  <rect x="4" y="1" width="1" height="1" fill="#EA580C"/>
  <rect x="5" y="1" width="1" height="1" fill="#FF6B1A"/>
  <rect x="8" y="1" width="1" height="1" fill="#FF6B1A"/>
  <rect x="9" y="1" width="1" height="1" fill="#EA580C"/>
  <rect x="10" y="1" width="1" height="1" fill="#EA580C"/>
  <rect x="11" y="1" width="1" height="1" fill="#FF6B1A"/>
  <rect x="3" y="2" width="6" height="6" fill="#FF6B1A"/>
  <rect x="4" y="3" width="2" height="1" fill="#0A0A14"/>
  <rect x="8" y="3" width="2" height="1" fill="#0A0A14"/>
  <rect x="6" y="6" width="2" height="1" fill="#FFFFFF"/>
  <rect x="2" y="8" width="10" height="4" fill="#FF6B1A"/>
  <rect x="3" y="12" width="2" height="1" fill="#EA580C"/>
  <rect x="9" y="12" width="2" height="1" fill="#EA580C"/>
</svg>
